<mxfile host="app.diagrams.net" agent="Mozilla/5.0 (Windows NT 10.0; Win64; x64) AppleWebKit/537.36 (KHTML, like Gecko) Chrome/133.0.0.0 Safari/537.36" version="26.0.11">
  <diagram name="Página-1" id="3N7LyYh1EsVA9Rvr0ZQE">
    <mxGraphModel dx="880" dy="434" grid="1" gridSize="10" guides="1" tooltips="1" connect="1" arrows="1" fold="1" page="1" pageScale="1" pageWidth="827" pageHeight="1169" math="0" shadow="0">
      <root>
        <mxCell id="0" />
        <mxCell id="1" parent="0" />
        <mxCell id="9Ai0LDbEZ_OrRud7lZ-n-2" value="&#xa;  &#xa;    &#xa;      &#xa;        &#xa;        &#xa;        &#xa;          &#xa;        &#xa;        &#xa;          &#xa;        &#xa;        &#xa;          &#xa;        &#xa;        &#xa;          &#xa;        &#xa;        &#xa;          &#xa;        &#xa;        &#xa;          &#xa;        &#xa;        &#xa;          &#xa;        &#xa;        &#xa;          &#xa;        &#xa;        &#xa;          &#xa;        &#xa;        &#xa;          &#xa;        &#xa;        &#xa;          &#xa;        &#xa;        &#xa;          &#xa;        &#xa;        &#xa;          &#xa;        &#xa;        &#xa;          &#xa;        &#xa;        &#xa;          &#xa;        &#xa;        &#xa;          &#xa;        &#xa;        &#xa;          &#xa;        &#xa;        &#xa;          &#xa;        &#xa;        &#xa;          &#xa;        &#xa;        &#xa;          &#xa;        &#xa;        &#xa;          &#xa;        &#xa;        &#xa;          &#xa;        &#xa;        &#xa;          &#xa;        &#xa;        &#xa;          &#xa;        &#xa;        &#xa;          &#xa;        &#xa;        &#xa;          &#xa;        &#xa;        &#xa;          &#xa;        &#xa;        &#xa;          &#xa;        &#xa;        &#xa;          " style="text;whiteSpace=wrap;html=1;" parent="1" vertex="1">
          <mxGeometry x="40" y="40" width="30" height="1330" as="geometry" />
        </mxCell>
        <mxCell id="9Ai0LDbEZ_OrRud7lZ-n-3" value="&#xa;  &#xa;    &#xa;      &#xa;        &#xa;        &#xa;        &#xa;        &#xa;          &#xa;        &#xa;        &#xa;          &#xa;        &#xa;        &#xa;          &#xa;        &#xa;        &#xa;          &#xa;        &#xa;        &#xa;          &#xa;        &#xa;        &#xa;        &#xa;          &#xa;        &#xa;        &#xa;          &#xa;        &#xa;        &#xa;          &#xa;        &#xa;        &#xa;          &#xa;        &#xa;        &#xa;          &#xa;        &#xa;        &#xa;          &#xa;        &#xa;        &#xa;          &#xa;        &#xa;        &#xa;        &#xa;          &#xa;        &#xa;        &#xa;          &#xa;        &#xa;        &#xa;          &#xa;        &#xa;        &#xa;          &#xa;        &#xa;        &#xa;          &#xa;        &#xa;        &#xa;          &#xa;        &#xa;        &#xa;          &#xa;        &#xa;        &#xa;          &#xa;        &#xa;        &#xa;          &#xa;        &#xa;        &#xa;        &#xa;          &#xa;        &#xa;        &#xa;          &#xa;        &#xa;        &#xa;          &#xa;        &#xa;        &#xa;        &#xa;          &#xa;        &#xa;        &#xa;          &#xa;        &#xa;        &#xa;          &#xa;        &#xa;        &#xa;          &#xa;        &#xa;        &#xa;          &#xa;        &#xa;        &#xa;          &#xa;        &#xa;        &#xa;        &#xa;          &#xa;        &#xa;        &#xa;          &#xa;        &#xa;        &#xa;          " style="text;whiteSpace=wrap;html=1;" parent="1" vertex="1">
          <mxGeometry x="80" y="1410" width="30" height="1590" as="geometry" />
        </mxCell>
        <mxCell id="9Ai0LDbEZ_OrRud7lZ-n-4" value="&#xa;  &#xa;    &#xa;      &#xa;        &#xa;        &#xa;        &#xa;        &#xa;          &#xa;        &#xa;        &#xa;          &#xa;        &#xa;        &#xa;          &#xa;        &#xa;        &#xa;          &#xa;        &#xa;        &#xa;          &#xa;        &#xa;        &#xa;        &#xa;          &#xa;        &#xa;        &#xa;          &#xa;        &#xa;        &#xa;          &#xa;        &#xa;        &#xa;          &#xa;        &#xa;        &#xa;          &#xa;        &#xa;        &#xa;          &#xa;        &#xa;        &#xa;          &#xa;        &#xa;        &#xa;        &#xa;          &#xa;        &#xa;        &#xa;          &#xa;        &#xa;        &#xa;          &#xa;        &#xa;        &#xa;          &#xa;        &#xa;        &#xa;          &#xa;        &#xa;        &#xa;          &#xa;        &#xa;        &#xa;          &#xa;        &#xa;        &#xa;          &#xa;        &#xa;        &#xa;          &#xa;        &#xa;        &#xa;        &#xa;          &#xa;        &#xa;        &#xa;          &#xa;        &#xa;        &#xa;          &#xa;        &#xa;        &#xa;        &#xa;          &#xa;        &#xa;        &#xa;          &#xa;        &#xa;        &#xa;          &#xa;        &#xa;        &#xa;          &#xa;        &#xa;        &#xa;          &#xa;        &#xa;        &#xa;          &#xa;        &#xa;        &#xa;        &#xa;          &#xa;        &#xa;        &#xa;          &#xa;        &#xa;        &#xa;          " style="text;whiteSpace=wrap;html=1;" parent="1" vertex="1">
          <mxGeometry x="80" y="3040" width="30" height="1590" as="geometry" />
        </mxCell>
        <mxCell id="9Ai0LDbEZ_OrRud7lZ-n-5" value="Cliente" style="shape=table;startSize=30;container=1;collapsible=1;childLayout=tableLayout;fixedRows=1;rowLines=0;fontStyle=1;align=center;resizeLast=1;html=1;" parent="1" vertex="1">
          <mxGeometry x="20" y="2410" width="180" height="180" as="geometry" />
        </mxCell>
        <mxCell id="9Ai0LDbEZ_OrRud7lZ-n-6" value="" style="shape=tableRow;horizontal=0;startSize=0;swimlaneHead=0;swimlaneBody=0;fillColor=none;collapsible=0;dropTarget=0;points=[[0,0.5],[1,0.5]];portConstraint=eastwest;top=0;left=0;right=0;bottom=1;" parent="9Ai0LDbEZ_OrRud7lZ-n-5" vertex="1">
          <mxGeometry y="30" width="180" height="30" as="geometry" />
        </mxCell>
        <mxCell id="9Ai0LDbEZ_OrRud7lZ-n-7" value="PK" style="shape=partialRectangle;connectable=0;fillColor=none;top=0;left=0;bottom=0;right=0;fontStyle=1;overflow=hidden;whiteSpace=wrap;html=1;" parent="9Ai0LDbEZ_OrRud7lZ-n-6" vertex="1">
          <mxGeometry width="30" height="30" as="geometry">
            <mxRectangle width="30" height="30" as="alternateBounds" />
          </mxGeometry>
        </mxCell>
        <mxCell id="9Ai0LDbEZ_OrRud7lZ-n-8" value="IDCliente" style="shape=partialRectangle;connectable=0;fillColor=none;top=0;left=0;bottom=0;right=0;align=left;spacingLeft=6;fontStyle=5;overflow=hidden;whiteSpace=wrap;html=1;" parent="9Ai0LDbEZ_OrRud7lZ-n-6" vertex="1">
          <mxGeometry x="30" width="150" height="30" as="geometry">
            <mxRectangle width="150" height="30" as="alternateBounds" />
          </mxGeometry>
        </mxCell>
        <mxCell id="9Ai0LDbEZ_OrRud7lZ-n-9" value="" style="shape=tableRow;horizontal=0;startSize=0;swimlaneHead=0;swimlaneBody=0;fillColor=none;collapsible=0;dropTarget=0;points=[[0,0.5],[1,0.5]];portConstraint=eastwest;top=0;left=0;right=0;bottom=0;" parent="9Ai0LDbEZ_OrRud7lZ-n-5" vertex="1">
          <mxGeometry y="60" width="180" height="30" as="geometry" />
        </mxCell>
        <mxCell id="9Ai0LDbEZ_OrRud7lZ-n-10" value="" style="shape=partialRectangle;connectable=0;fillColor=none;top=0;left=0;bottom=0;right=0;editable=1;overflow=hidden;whiteSpace=wrap;html=1;" parent="9Ai0LDbEZ_OrRud7lZ-n-9" vertex="1">
          <mxGeometry width="30" height="30" as="geometry">
            <mxRectangle width="30" height="30" as="alternateBounds" />
          </mxGeometry>
        </mxCell>
        <mxCell id="9Ai0LDbEZ_OrRud7lZ-n-11" value="Nome VARCHAR (45)" style="shape=partialRectangle;connectable=0;fillColor=none;top=0;left=0;bottom=0;right=0;align=left;spacingLeft=6;overflow=hidden;whiteSpace=wrap;html=1;" parent="9Ai0LDbEZ_OrRud7lZ-n-9" vertex="1">
          <mxGeometry x="30" width="150" height="30" as="geometry">
            <mxRectangle width="150" height="30" as="alternateBounds" />
          </mxGeometry>
        </mxCell>
        <mxCell id="9Ai0LDbEZ_OrRud7lZ-n-12" value="" style="shape=tableRow;horizontal=0;startSize=0;swimlaneHead=0;swimlaneBody=0;fillColor=none;collapsible=0;dropTarget=0;points=[[0,0.5],[1,0.5]];portConstraint=eastwest;top=0;left=0;right=0;bottom=0;" parent="9Ai0LDbEZ_OrRud7lZ-n-5" vertex="1">
          <mxGeometry y="90" width="180" height="30" as="geometry" />
        </mxCell>
        <mxCell id="9Ai0LDbEZ_OrRud7lZ-n-13" value="" style="shape=partialRectangle;connectable=0;fillColor=none;top=0;left=0;bottom=0;right=0;editable=1;overflow=hidden;whiteSpace=wrap;html=1;" parent="9Ai0LDbEZ_OrRud7lZ-n-12" vertex="1">
          <mxGeometry width="30" height="30" as="geometry">
            <mxRectangle width="30" height="30" as="alternateBounds" />
          </mxGeometry>
        </mxCell>
        <mxCell id="9Ai0LDbEZ_OrRud7lZ-n-14" value="Endereço VARCHAR (45)" style="shape=partialRectangle;connectable=0;fillColor=none;top=0;left=0;bottom=0;right=0;align=left;spacingLeft=6;overflow=hidden;whiteSpace=wrap;html=1;" parent="9Ai0LDbEZ_OrRud7lZ-n-12" vertex="1">
          <mxGeometry x="30" width="150" height="30" as="geometry">
            <mxRectangle width="150" height="30" as="alternateBounds" />
          </mxGeometry>
        </mxCell>
        <mxCell id="9Ai0LDbEZ_OrRud7lZ-n-15" value="" style="shape=tableRow;horizontal=0;startSize=0;swimlaneHead=0;swimlaneBody=0;fillColor=none;collapsible=0;dropTarget=0;points=[[0,0.5],[1,0.5]];portConstraint=eastwest;top=0;left=0;right=0;bottom=0;" parent="9Ai0LDbEZ_OrRud7lZ-n-5" vertex="1">
          <mxGeometry y="120" width="180" height="30" as="geometry" />
        </mxCell>
        <mxCell id="9Ai0LDbEZ_OrRud7lZ-n-16" value="" style="shape=partialRectangle;connectable=0;fillColor=none;top=0;left=0;bottom=0;right=0;editable=1;overflow=hidden;whiteSpace=wrap;html=1;" parent="9Ai0LDbEZ_OrRud7lZ-n-15" vertex="1">
          <mxGeometry width="30" height="30" as="geometry">
            <mxRectangle width="30" height="30" as="alternateBounds" />
          </mxGeometry>
        </mxCell>
        <mxCell id="9Ai0LDbEZ_OrRud7lZ-n-17" value="Telefone VARCHAR (45)" style="shape=partialRectangle;connectable=0;fillColor=none;top=0;left=0;bottom=0;right=0;align=left;spacingLeft=6;overflow=hidden;whiteSpace=wrap;html=1;" parent="9Ai0LDbEZ_OrRud7lZ-n-15" vertex="1">
          <mxGeometry x="30" width="150" height="30" as="geometry">
            <mxRectangle width="150" height="30" as="alternateBounds" />
          </mxGeometry>
        </mxCell>
        <mxCell id="nkZ4B8Kq5Z6Ev2J-McXG-33" value="" style="shape=tableRow;horizontal=0;startSize=0;swimlaneHead=0;swimlaneBody=0;fillColor=none;collapsible=0;dropTarget=0;points=[[0,0.5],[1,0.5]];portConstraint=eastwest;top=0;left=0;right=0;bottom=0;" vertex="1" parent="9Ai0LDbEZ_OrRud7lZ-n-5">
          <mxGeometry y="150" width="180" height="30" as="geometry" />
        </mxCell>
        <mxCell id="nkZ4B8Kq5Z6Ev2J-McXG-34" value="" style="shape=partialRectangle;connectable=0;fillColor=none;top=0;left=0;bottom=0;right=0;editable=1;overflow=hidden;whiteSpace=wrap;html=1;" vertex="1" parent="nkZ4B8Kq5Z6Ev2J-McXG-33">
          <mxGeometry width="30" height="30" as="geometry">
            <mxRectangle width="30" height="30" as="alternateBounds" />
          </mxGeometry>
        </mxCell>
        <mxCell id="nkZ4B8Kq5Z6Ev2J-McXG-35" value="Email VARCHAR (45)" style="shape=partialRectangle;connectable=0;fillColor=none;top=0;left=0;bottom=0;right=0;align=left;spacingLeft=6;overflow=hidden;whiteSpace=wrap;html=1;" vertex="1" parent="nkZ4B8Kq5Z6Ev2J-McXG-33">
          <mxGeometry x="30" width="150" height="30" as="geometry">
            <mxRectangle width="150" height="30" as="alternateBounds" />
          </mxGeometry>
        </mxCell>
        <mxCell id="9Ai0LDbEZ_OrRud7lZ-n-18" value="Veículo" style="shape=table;startSize=30;container=1;collapsible=1;childLayout=tableLayout;fixedRows=1;rowLines=0;fontStyle=1;align=center;resizeLast=1;html=1;" parent="1" vertex="1">
          <mxGeometry x="300" y="2410" width="180" height="180" as="geometry" />
        </mxCell>
        <mxCell id="9Ai0LDbEZ_OrRud7lZ-n-19" value="" style="shape=tableRow;horizontal=0;startSize=0;swimlaneHead=0;swimlaneBody=0;fillColor=none;collapsible=0;dropTarget=0;points=[[0,0.5],[1,0.5]];portConstraint=eastwest;top=0;left=0;right=0;bottom=1;" parent="9Ai0LDbEZ_OrRud7lZ-n-18" vertex="1">
          <mxGeometry y="30" width="180" height="30" as="geometry" />
        </mxCell>
        <mxCell id="9Ai0LDbEZ_OrRud7lZ-n-20" value="PK" style="shape=partialRectangle;connectable=0;fillColor=none;top=0;left=0;bottom=0;right=0;fontStyle=1;overflow=hidden;whiteSpace=wrap;html=1;" parent="9Ai0LDbEZ_OrRud7lZ-n-19" vertex="1">
          <mxGeometry width="30" height="30" as="geometry">
            <mxRectangle width="30" height="30" as="alternateBounds" />
          </mxGeometry>
        </mxCell>
        <mxCell id="9Ai0LDbEZ_OrRud7lZ-n-21" value="IDVeiculo" style="shape=partialRectangle;connectable=0;fillColor=none;top=0;left=0;bottom=0;right=0;align=left;spacingLeft=6;fontStyle=5;overflow=hidden;whiteSpace=wrap;html=1;" parent="9Ai0LDbEZ_OrRud7lZ-n-19" vertex="1">
          <mxGeometry x="30" width="150" height="30" as="geometry">
            <mxRectangle width="150" height="30" as="alternateBounds" />
          </mxGeometry>
        </mxCell>
        <mxCell id="9Ai0LDbEZ_OrRud7lZ-n-25" value="" style="shape=tableRow;horizontal=0;startSize=0;swimlaneHead=0;swimlaneBody=0;fillColor=none;collapsible=0;dropTarget=0;points=[[0,0.5],[1,0.5]];portConstraint=eastwest;top=0;left=0;right=0;bottom=0;" parent="9Ai0LDbEZ_OrRud7lZ-n-18" vertex="1">
          <mxGeometry y="60" width="180" height="30" as="geometry" />
        </mxCell>
        <mxCell id="9Ai0LDbEZ_OrRud7lZ-n-26" value="" style="shape=partialRectangle;connectable=0;fillColor=none;top=0;left=0;bottom=0;right=0;editable=1;overflow=hidden;whiteSpace=wrap;html=1;" parent="9Ai0LDbEZ_OrRud7lZ-n-25" vertex="1">
          <mxGeometry width="30" height="30" as="geometry">
            <mxRectangle width="30" height="30" as="alternateBounds" />
          </mxGeometry>
        </mxCell>
        <mxCell id="9Ai0LDbEZ_OrRud7lZ-n-27" value="Marca VARCHAR (45)" style="shape=partialRectangle;connectable=0;fillColor=none;top=0;left=0;bottom=0;right=0;align=left;spacingLeft=6;overflow=hidden;whiteSpace=wrap;html=1;" parent="9Ai0LDbEZ_OrRud7lZ-n-25" vertex="1">
          <mxGeometry x="30" width="150" height="30" as="geometry">
            <mxRectangle width="150" height="30" as="alternateBounds" />
          </mxGeometry>
        </mxCell>
        <mxCell id="9Ai0LDbEZ_OrRud7lZ-n-28" value="" style="shape=tableRow;horizontal=0;startSize=0;swimlaneHead=0;swimlaneBody=0;fillColor=none;collapsible=0;dropTarget=0;points=[[0,0.5],[1,0.5]];portConstraint=eastwest;top=0;left=0;right=0;bottom=0;" parent="9Ai0LDbEZ_OrRud7lZ-n-18" vertex="1">
          <mxGeometry y="90" width="180" height="30" as="geometry" />
        </mxCell>
        <mxCell id="9Ai0LDbEZ_OrRud7lZ-n-29" value="" style="shape=partialRectangle;connectable=0;fillColor=none;top=0;left=0;bottom=0;right=0;editable=1;overflow=hidden;whiteSpace=wrap;html=1;" parent="9Ai0LDbEZ_OrRud7lZ-n-28" vertex="1">
          <mxGeometry width="30" height="30" as="geometry">
            <mxRectangle width="30" height="30" as="alternateBounds" />
          </mxGeometry>
        </mxCell>
        <mxCell id="9Ai0LDbEZ_OrRud7lZ-n-30" value="Modelo VARCHAR (45)" style="shape=partialRectangle;connectable=0;fillColor=none;top=0;left=0;bottom=0;right=0;align=left;spacingLeft=6;overflow=hidden;whiteSpace=wrap;html=1;" parent="9Ai0LDbEZ_OrRud7lZ-n-28" vertex="1">
          <mxGeometry x="30" width="150" height="30" as="geometry">
            <mxRectangle width="150" height="30" as="alternateBounds" />
          </mxGeometry>
        </mxCell>
        <mxCell id="9Ai0LDbEZ_OrRud7lZ-n-47" value="" style="shape=tableRow;horizontal=0;startSize=0;swimlaneHead=0;swimlaneBody=0;fillColor=none;collapsible=0;dropTarget=0;points=[[0,0.5],[1,0.5]];portConstraint=eastwest;top=0;left=0;right=0;bottom=0;" parent="9Ai0LDbEZ_OrRud7lZ-n-18" vertex="1">
          <mxGeometry y="120" width="180" height="30" as="geometry" />
        </mxCell>
        <mxCell id="9Ai0LDbEZ_OrRud7lZ-n-48" value="" style="shape=partialRectangle;connectable=0;fillColor=none;top=0;left=0;bottom=0;right=0;editable=1;overflow=hidden;whiteSpace=wrap;html=1;" parent="9Ai0LDbEZ_OrRud7lZ-n-47" vertex="1">
          <mxGeometry width="30" height="30" as="geometry">
            <mxRectangle width="30" height="30" as="alternateBounds" />
          </mxGeometry>
        </mxCell>
        <mxCell id="9Ai0LDbEZ_OrRud7lZ-n-49" value="Ano VARCHAR (45)" style="shape=partialRectangle;connectable=0;fillColor=none;top=0;left=0;bottom=0;right=0;align=left;spacingLeft=6;overflow=hidden;whiteSpace=wrap;html=1;" parent="9Ai0LDbEZ_OrRud7lZ-n-47" vertex="1">
          <mxGeometry x="30" width="150" height="30" as="geometry">
            <mxRectangle width="150" height="30" as="alternateBounds" />
          </mxGeometry>
        </mxCell>
        <mxCell id="9Ai0LDbEZ_OrRud7lZ-n-50" value="" style="shape=tableRow;horizontal=0;startSize=0;swimlaneHead=0;swimlaneBody=0;fillColor=none;collapsible=0;dropTarget=0;points=[[0,0.5],[1,0.5]];portConstraint=eastwest;top=0;left=0;right=0;bottom=0;" parent="9Ai0LDbEZ_OrRud7lZ-n-18" vertex="1">
          <mxGeometry y="150" width="180" height="30" as="geometry" />
        </mxCell>
        <mxCell id="9Ai0LDbEZ_OrRud7lZ-n-51" value="" style="shape=partialRectangle;connectable=0;fillColor=none;top=0;left=0;bottom=0;right=0;editable=1;overflow=hidden;whiteSpace=wrap;html=1;" parent="9Ai0LDbEZ_OrRud7lZ-n-50" vertex="1">
          <mxGeometry width="30" height="30" as="geometry">
            <mxRectangle width="30" height="30" as="alternateBounds" />
          </mxGeometry>
        </mxCell>
        <mxCell id="9Ai0LDbEZ_OrRud7lZ-n-52" value="IDCliente" style="shape=partialRectangle;connectable=0;fillColor=none;top=0;left=0;bottom=0;right=0;align=left;spacingLeft=6;overflow=hidden;whiteSpace=wrap;html=1;" parent="9Ai0LDbEZ_OrRud7lZ-n-50" vertex="1">
          <mxGeometry x="30" width="150" height="30" as="geometry">
            <mxRectangle width="150" height="30" as="alternateBounds" />
          </mxGeometry>
        </mxCell>
        <mxCell id="9Ai0LDbEZ_OrRud7lZ-n-53" value="Ordem de Serviço (OS)" style="shape=table;startSize=30;container=1;collapsible=1;childLayout=tableLayout;fixedRows=1;rowLines=0;fontStyle=1;align=center;resizeLast=1;html=1;" parent="1" vertex="1">
          <mxGeometry x="620" y="2400" width="180" height="180" as="geometry" />
        </mxCell>
        <mxCell id="9Ai0LDbEZ_OrRud7lZ-n-54" value="" style="shape=tableRow;horizontal=0;startSize=0;swimlaneHead=0;swimlaneBody=0;fillColor=none;collapsible=0;dropTarget=0;points=[[0,0.5],[1,0.5]];portConstraint=eastwest;top=0;left=0;right=0;bottom=1;" parent="9Ai0LDbEZ_OrRud7lZ-n-53" vertex="1">
          <mxGeometry y="30" width="180" height="30" as="geometry" />
        </mxCell>
        <mxCell id="9Ai0LDbEZ_OrRud7lZ-n-55" value="PK" style="shape=partialRectangle;connectable=0;fillColor=none;top=0;left=0;bottom=0;right=0;fontStyle=1;overflow=hidden;whiteSpace=wrap;html=1;" parent="9Ai0LDbEZ_OrRud7lZ-n-54" vertex="1">
          <mxGeometry width="30" height="30" as="geometry">
            <mxRectangle width="30" height="30" as="alternateBounds" />
          </mxGeometry>
        </mxCell>
        <mxCell id="9Ai0LDbEZ_OrRud7lZ-n-56" value="IDOS" style="shape=partialRectangle;connectable=0;fillColor=none;top=0;left=0;bottom=0;right=0;align=left;spacingLeft=6;fontStyle=5;overflow=hidden;whiteSpace=wrap;html=1;" parent="9Ai0LDbEZ_OrRud7lZ-n-54" vertex="1">
          <mxGeometry x="30" width="150" height="30" as="geometry">
            <mxRectangle width="150" height="30" as="alternateBounds" />
          </mxGeometry>
        </mxCell>
        <mxCell id="9Ai0LDbEZ_OrRud7lZ-n-57" value="" style="shape=tableRow;horizontal=0;startSize=0;swimlaneHead=0;swimlaneBody=0;fillColor=none;collapsible=0;dropTarget=0;points=[[0,0.5],[1,0.5]];portConstraint=eastwest;top=0;left=0;right=0;bottom=0;" parent="9Ai0LDbEZ_OrRud7lZ-n-53" vertex="1">
          <mxGeometry y="60" width="180" height="30" as="geometry" />
        </mxCell>
        <mxCell id="9Ai0LDbEZ_OrRud7lZ-n-58" value="" style="shape=partialRectangle;connectable=0;fillColor=none;top=0;left=0;bottom=0;right=0;editable=1;overflow=hidden;whiteSpace=wrap;html=1;" parent="9Ai0LDbEZ_OrRud7lZ-n-57" vertex="1">
          <mxGeometry width="30" height="30" as="geometry">
            <mxRectangle width="30" height="30" as="alternateBounds" />
          </mxGeometry>
        </mxCell>
        <mxCell id="9Ai0LDbEZ_OrRud7lZ-n-59" value="Data de abertura DATE" style="shape=partialRectangle;connectable=0;fillColor=none;top=0;left=0;bottom=0;right=0;align=left;spacingLeft=6;overflow=hidden;whiteSpace=wrap;html=1;" parent="9Ai0LDbEZ_OrRud7lZ-n-57" vertex="1">
          <mxGeometry x="30" width="150" height="30" as="geometry">
            <mxRectangle width="150" height="30" as="alternateBounds" />
          </mxGeometry>
        </mxCell>
        <mxCell id="9Ai0LDbEZ_OrRud7lZ-n-60" value="" style="shape=tableRow;horizontal=0;startSize=0;swimlaneHead=0;swimlaneBody=0;fillColor=none;collapsible=0;dropTarget=0;points=[[0,0.5],[1,0.5]];portConstraint=eastwest;top=0;left=0;right=0;bottom=0;" parent="9Ai0LDbEZ_OrRud7lZ-n-53" vertex="1">
          <mxGeometry y="90" width="180" height="30" as="geometry" />
        </mxCell>
        <mxCell id="9Ai0LDbEZ_OrRud7lZ-n-61" value="" style="shape=partialRectangle;connectable=0;fillColor=none;top=0;left=0;bottom=0;right=0;editable=1;overflow=hidden;whiteSpace=wrap;html=1;" parent="9Ai0LDbEZ_OrRud7lZ-n-60" vertex="1">
          <mxGeometry width="30" height="30" as="geometry">
            <mxRectangle width="30" height="30" as="alternateBounds" />
          </mxGeometry>
        </mxCell>
        <mxCell id="9Ai0LDbEZ_OrRud7lZ-n-62" value="Data de entrega DATE" style="shape=partialRectangle;connectable=0;fillColor=none;top=0;left=0;bottom=0;right=0;align=left;spacingLeft=6;overflow=hidden;whiteSpace=wrap;html=1;" parent="9Ai0LDbEZ_OrRud7lZ-n-60" vertex="1">
          <mxGeometry x="30" width="150" height="30" as="geometry">
            <mxRectangle width="150" height="30" as="alternateBounds" />
          </mxGeometry>
        </mxCell>
        <mxCell id="9Ai0LDbEZ_OrRud7lZ-n-63" value="" style="shape=tableRow;horizontal=0;startSize=0;swimlaneHead=0;swimlaneBody=0;fillColor=none;collapsible=0;dropTarget=0;points=[[0,0.5],[1,0.5]];portConstraint=eastwest;top=0;left=0;right=0;bottom=0;" parent="9Ai0LDbEZ_OrRud7lZ-n-53" vertex="1">
          <mxGeometry y="120" width="180" height="30" as="geometry" />
        </mxCell>
        <mxCell id="9Ai0LDbEZ_OrRud7lZ-n-64" value="" style="shape=partialRectangle;connectable=0;fillColor=none;top=0;left=0;bottom=0;right=0;editable=1;overflow=hidden;whiteSpace=wrap;html=1;" parent="9Ai0LDbEZ_OrRud7lZ-n-63" vertex="1">
          <mxGeometry width="30" height="30" as="geometry">
            <mxRectangle width="30" height="30" as="alternateBounds" />
          </mxGeometry>
        </mxCell>
        <mxCell id="9Ai0LDbEZ_OrRud7lZ-n-65" value="Status FLOAT" style="shape=partialRectangle;connectable=0;fillColor=none;top=0;left=0;bottom=0;right=0;align=left;spacingLeft=6;overflow=hidden;whiteSpace=wrap;html=1;" parent="9Ai0LDbEZ_OrRud7lZ-n-63" vertex="1">
          <mxGeometry x="30" width="150" height="30" as="geometry">
            <mxRectangle width="150" height="30" as="alternateBounds" />
          </mxGeometry>
        </mxCell>
        <mxCell id="9Ai0LDbEZ_OrRud7lZ-n-66" value="" style="shape=tableRow;horizontal=0;startSize=0;swimlaneHead=0;swimlaneBody=0;fillColor=none;collapsible=0;dropTarget=0;points=[[0,0.5],[1,0.5]];portConstraint=eastwest;top=0;left=0;right=0;bottom=0;" parent="9Ai0LDbEZ_OrRud7lZ-n-53" vertex="1">
          <mxGeometry y="150" width="180" height="30" as="geometry" />
        </mxCell>
        <mxCell id="9Ai0LDbEZ_OrRud7lZ-n-67" value="" style="shape=partialRectangle;connectable=0;fillColor=none;top=0;left=0;bottom=0;right=0;editable=1;overflow=hidden;whiteSpace=wrap;html=1;" parent="9Ai0LDbEZ_OrRud7lZ-n-66" vertex="1">
          <mxGeometry width="30" height="30" as="geometry">
            <mxRectangle width="30" height="30" as="alternateBounds" />
          </mxGeometry>
        </mxCell>
        <mxCell id="9Ai0LDbEZ_OrRud7lZ-n-68" value="IDVeiculo" style="shape=partialRectangle;connectable=0;fillColor=none;top=0;left=0;bottom=0;right=0;align=left;spacingLeft=6;overflow=hidden;whiteSpace=wrap;html=1;" parent="9Ai0LDbEZ_OrRud7lZ-n-66" vertex="1">
          <mxGeometry x="30" width="150" height="30" as="geometry">
            <mxRectangle width="150" height="30" as="alternateBounds" />
          </mxGeometry>
        </mxCell>
        <mxCell id="9Ai0LDbEZ_OrRud7lZ-n-91" value="OS_Mecanico" style="shape=table;startSize=30;container=1;collapsible=1;childLayout=tableLayout;fixedRows=1;rowLines=0;fontStyle=1;align=center;resizeLast=1;html=1;" parent="1" vertex="1">
          <mxGeometry x="310" y="2680" width="180" height="180" as="geometry" />
        </mxCell>
        <mxCell id="9Ai0LDbEZ_OrRud7lZ-n-92" value="" style="shape=tableRow;horizontal=0;startSize=0;swimlaneHead=0;swimlaneBody=0;fillColor=none;collapsible=0;dropTarget=0;points=[[0,0.5],[1,0.5]];portConstraint=eastwest;top=0;left=0;right=0;bottom=1;" parent="9Ai0LDbEZ_OrRud7lZ-n-91" vertex="1">
          <mxGeometry y="30" width="180" height="30" as="geometry" />
        </mxCell>
        <mxCell id="9Ai0LDbEZ_OrRud7lZ-n-93" value="PK" style="shape=partialRectangle;connectable=0;fillColor=none;top=0;left=0;bottom=0;right=0;fontStyle=1;overflow=hidden;whiteSpace=wrap;html=1;" parent="9Ai0LDbEZ_OrRud7lZ-n-92" vertex="1">
          <mxGeometry width="30" height="30" as="geometry">
            <mxRectangle width="30" height="30" as="alternateBounds" />
          </mxGeometry>
        </mxCell>
        <mxCell id="9Ai0LDbEZ_OrRud7lZ-n-94" value="IDMecanico" style="shape=partialRectangle;connectable=0;fillColor=none;top=0;left=0;bottom=0;right=0;align=left;spacingLeft=6;fontStyle=5;overflow=hidden;whiteSpace=wrap;html=1;" parent="9Ai0LDbEZ_OrRud7lZ-n-92" vertex="1">
          <mxGeometry x="30" width="150" height="30" as="geometry">
            <mxRectangle width="150" height="30" as="alternateBounds" />
          </mxGeometry>
        </mxCell>
        <mxCell id="9Ai0LDbEZ_OrRud7lZ-n-95" value="" style="shape=tableRow;horizontal=0;startSize=0;swimlaneHead=0;swimlaneBody=0;fillColor=none;collapsible=0;dropTarget=0;points=[[0,0.5],[1,0.5]];portConstraint=eastwest;top=0;left=0;right=0;bottom=0;" parent="9Ai0LDbEZ_OrRud7lZ-n-91" vertex="1">
          <mxGeometry y="60" width="180" height="30" as="geometry" />
        </mxCell>
        <mxCell id="9Ai0LDbEZ_OrRud7lZ-n-96" value="" style="shape=partialRectangle;connectable=0;fillColor=none;top=0;left=0;bottom=0;right=0;editable=1;overflow=hidden;whiteSpace=wrap;html=1;" parent="9Ai0LDbEZ_OrRud7lZ-n-95" vertex="1">
          <mxGeometry width="30" height="30" as="geometry">
            <mxRectangle width="30" height="30" as="alternateBounds" />
          </mxGeometry>
        </mxCell>
        <mxCell id="9Ai0LDbEZ_OrRud7lZ-n-97" value="IDOS" style="shape=partialRectangle;connectable=0;fillColor=none;top=0;left=0;bottom=0;right=0;align=left;spacingLeft=6;overflow=hidden;whiteSpace=wrap;html=1;" parent="9Ai0LDbEZ_OrRud7lZ-n-95" vertex="1">
          <mxGeometry x="30" width="150" height="30" as="geometry">
            <mxRectangle width="150" height="30" as="alternateBounds" />
          </mxGeometry>
        </mxCell>
        <mxCell id="9Ai0LDbEZ_OrRud7lZ-n-98" value="" style="shape=tableRow;horizontal=0;startSize=0;swimlaneHead=0;swimlaneBody=0;fillColor=none;collapsible=0;dropTarget=0;points=[[0,0.5],[1,0.5]];portConstraint=eastwest;top=0;left=0;right=0;bottom=0;" parent="9Ai0LDbEZ_OrRud7lZ-n-91" vertex="1">
          <mxGeometry y="90" width="180" height="30" as="geometry" />
        </mxCell>
        <mxCell id="9Ai0LDbEZ_OrRud7lZ-n-99" value="" style="shape=partialRectangle;connectable=0;fillColor=none;top=0;left=0;bottom=0;right=0;editable=1;overflow=hidden;whiteSpace=wrap;html=1;" parent="9Ai0LDbEZ_OrRud7lZ-n-98" vertex="1">
          <mxGeometry width="30" height="30" as="geometry">
            <mxRectangle width="30" height="30" as="alternateBounds" />
          </mxGeometry>
        </mxCell>
        <mxCell id="9Ai0LDbEZ_OrRud7lZ-n-100" value="IDVeiculo" style="shape=partialRectangle;connectable=0;fillColor=none;top=0;left=0;bottom=0;right=0;align=left;spacingLeft=6;overflow=hidden;whiteSpace=wrap;html=1;" parent="9Ai0LDbEZ_OrRud7lZ-n-98" vertex="1">
          <mxGeometry x="30" width="150" height="30" as="geometry">
            <mxRectangle width="150" height="30" as="alternateBounds" />
          </mxGeometry>
        </mxCell>
        <mxCell id="9Ai0LDbEZ_OrRud7lZ-n-101" value="" style="shape=tableRow;horizontal=0;startSize=0;swimlaneHead=0;swimlaneBody=0;fillColor=none;collapsible=0;dropTarget=0;points=[[0,0.5],[1,0.5]];portConstraint=eastwest;top=0;left=0;right=0;bottom=0;" parent="9Ai0LDbEZ_OrRud7lZ-n-91" vertex="1">
          <mxGeometry y="120" width="180" height="30" as="geometry" />
        </mxCell>
        <mxCell id="9Ai0LDbEZ_OrRud7lZ-n-102" value="" style="shape=partialRectangle;connectable=0;fillColor=none;top=0;left=0;bottom=0;right=0;editable=1;overflow=hidden;whiteSpace=wrap;html=1;" parent="9Ai0LDbEZ_OrRud7lZ-n-101" vertex="1">
          <mxGeometry width="30" height="30" as="geometry">
            <mxRectangle width="30" height="30" as="alternateBounds" />
          </mxGeometry>
        </mxCell>
        <mxCell id="9Ai0LDbEZ_OrRud7lZ-n-103" value="IDServico" style="shape=partialRectangle;connectable=0;fillColor=none;top=0;left=0;bottom=0;right=0;align=left;spacingLeft=6;overflow=hidden;whiteSpace=wrap;html=1;" parent="9Ai0LDbEZ_OrRud7lZ-n-101" vertex="1">
          <mxGeometry x="30" width="150" height="30" as="geometry">
            <mxRectangle width="150" height="30" as="alternateBounds" />
          </mxGeometry>
        </mxCell>
        <mxCell id="9Ai0LDbEZ_OrRud7lZ-n-156" value="" style="shape=tableRow;horizontal=0;startSize=0;swimlaneHead=0;swimlaneBody=0;fillColor=none;collapsible=0;dropTarget=0;points=[[0,0.5],[1,0.5]];portConstraint=eastwest;top=0;left=0;right=0;bottom=0;" parent="9Ai0LDbEZ_OrRud7lZ-n-91" vertex="1">
          <mxGeometry y="150" width="180" height="30" as="geometry" />
        </mxCell>
        <mxCell id="9Ai0LDbEZ_OrRud7lZ-n-157" value="" style="shape=partialRectangle;connectable=0;fillColor=none;top=0;left=0;bottom=0;right=0;editable=1;overflow=hidden;whiteSpace=wrap;html=1;" parent="9Ai0LDbEZ_OrRud7lZ-n-156" vertex="1">
          <mxGeometry width="30" height="30" as="geometry">
            <mxRectangle width="30" height="30" as="alternateBounds" />
          </mxGeometry>
        </mxCell>
        <mxCell id="9Ai0LDbEZ_OrRud7lZ-n-158" value="IDMecanico" style="shape=partialRectangle;connectable=0;fillColor=none;top=0;left=0;bottom=0;right=0;align=left;spacingLeft=6;overflow=hidden;whiteSpace=wrap;html=1;" parent="9Ai0LDbEZ_OrRud7lZ-n-156" vertex="1">
          <mxGeometry x="30" width="150" height="30" as="geometry">
            <mxRectangle width="150" height="30" as="alternateBounds" />
          </mxGeometry>
        </mxCell>
        <mxCell id="9Ai0LDbEZ_OrRud7lZ-n-159" value="Serviço" style="shape=table;startSize=30;container=1;collapsible=1;childLayout=tableLayout;fixedRows=1;rowLines=0;fontStyle=1;align=center;resizeLast=1;html=1;" parent="1" vertex="1">
          <mxGeometry x="620" y="2990" width="180" height="120" as="geometry" />
        </mxCell>
        <mxCell id="9Ai0LDbEZ_OrRud7lZ-n-160" value="" style="shape=tableRow;horizontal=0;startSize=0;swimlaneHead=0;swimlaneBody=0;fillColor=none;collapsible=0;dropTarget=0;points=[[0,0.5],[1,0.5]];portConstraint=eastwest;top=0;left=0;right=0;bottom=1;" parent="9Ai0LDbEZ_OrRud7lZ-n-159" vertex="1">
          <mxGeometry y="30" width="180" height="30" as="geometry" />
        </mxCell>
        <mxCell id="9Ai0LDbEZ_OrRud7lZ-n-161" value="PK" style="shape=partialRectangle;connectable=0;fillColor=none;top=0;left=0;bottom=0;right=0;fontStyle=1;overflow=hidden;whiteSpace=wrap;html=1;" parent="9Ai0LDbEZ_OrRud7lZ-n-160" vertex="1">
          <mxGeometry width="30" height="30" as="geometry">
            <mxRectangle width="30" height="30" as="alternateBounds" />
          </mxGeometry>
        </mxCell>
        <mxCell id="9Ai0LDbEZ_OrRud7lZ-n-162" value="IDServico" style="shape=partialRectangle;connectable=0;fillColor=none;top=0;left=0;bottom=0;right=0;align=left;spacingLeft=6;fontStyle=5;overflow=hidden;whiteSpace=wrap;html=1;" parent="9Ai0LDbEZ_OrRud7lZ-n-160" vertex="1">
          <mxGeometry x="30" width="150" height="30" as="geometry">
            <mxRectangle width="150" height="30" as="alternateBounds" />
          </mxGeometry>
        </mxCell>
        <mxCell id="9Ai0LDbEZ_OrRud7lZ-n-163" value="" style="shape=tableRow;horizontal=0;startSize=0;swimlaneHead=0;swimlaneBody=0;fillColor=none;collapsible=0;dropTarget=0;points=[[0,0.5],[1,0.5]];portConstraint=eastwest;top=0;left=0;right=0;bottom=0;" parent="9Ai0LDbEZ_OrRud7lZ-n-159" vertex="1">
          <mxGeometry y="60" width="180" height="30" as="geometry" />
        </mxCell>
        <mxCell id="9Ai0LDbEZ_OrRud7lZ-n-164" value="" style="shape=partialRectangle;connectable=0;fillColor=none;top=0;left=0;bottom=0;right=0;editable=1;overflow=hidden;whiteSpace=wrap;html=1;" parent="9Ai0LDbEZ_OrRud7lZ-n-163" vertex="1">
          <mxGeometry width="30" height="30" as="geometry">
            <mxRectangle width="30" height="30" as="alternateBounds" />
          </mxGeometry>
        </mxCell>
        <mxCell id="9Ai0LDbEZ_OrRud7lZ-n-165" value="Descricao VARCHAR (45)" style="shape=partialRectangle;connectable=0;fillColor=none;top=0;left=0;bottom=0;right=0;align=left;spacingLeft=6;overflow=hidden;whiteSpace=wrap;html=1;" parent="9Ai0LDbEZ_OrRud7lZ-n-163" vertex="1">
          <mxGeometry x="30" width="150" height="30" as="geometry">
            <mxRectangle width="150" height="30" as="alternateBounds" />
          </mxGeometry>
        </mxCell>
        <mxCell id="9Ai0LDbEZ_OrRud7lZ-n-166" value="" style="shape=tableRow;horizontal=0;startSize=0;swimlaneHead=0;swimlaneBody=0;fillColor=none;collapsible=0;dropTarget=0;points=[[0,0.5],[1,0.5]];portConstraint=eastwest;top=0;left=0;right=0;bottom=0;" parent="9Ai0LDbEZ_OrRud7lZ-n-159" vertex="1">
          <mxGeometry y="90" width="180" height="30" as="geometry" />
        </mxCell>
        <mxCell id="9Ai0LDbEZ_OrRud7lZ-n-167" value="" style="shape=partialRectangle;connectable=0;fillColor=none;top=0;left=0;bottom=0;right=0;editable=1;overflow=hidden;whiteSpace=wrap;html=1;" parent="9Ai0LDbEZ_OrRud7lZ-n-166" vertex="1">
          <mxGeometry width="30" height="30" as="geometry">
            <mxRectangle width="30" height="30" as="alternateBounds" />
          </mxGeometry>
        </mxCell>
        <mxCell id="9Ai0LDbEZ_OrRud7lZ-n-168" value="Preço REAL" style="shape=partialRectangle;connectable=0;fillColor=none;top=0;left=0;bottom=0;right=0;align=left;spacingLeft=6;overflow=hidden;whiteSpace=wrap;html=1;" parent="9Ai0LDbEZ_OrRud7lZ-n-166" vertex="1">
          <mxGeometry x="30" width="150" height="30" as="geometry">
            <mxRectangle width="150" height="30" as="alternateBounds" />
          </mxGeometry>
        </mxCell>
        <mxCell id="9Ai0LDbEZ_OrRud7lZ-n-172" value="Mecânico" style="shape=table;startSize=30;container=1;collapsible=1;childLayout=tableLayout;fixedRows=1;rowLines=0;fontStyle=1;align=center;resizeLast=1;html=1;" parent="1" vertex="1">
          <mxGeometry x="20" y="2773" width="200" height="150" as="geometry" />
        </mxCell>
        <mxCell id="9Ai0LDbEZ_OrRud7lZ-n-173" value="" style="shape=tableRow;horizontal=0;startSize=0;swimlaneHead=0;swimlaneBody=0;fillColor=none;collapsible=0;dropTarget=0;points=[[0,0.5],[1,0.5]];portConstraint=eastwest;top=0;left=0;right=0;bottom=1;" parent="9Ai0LDbEZ_OrRud7lZ-n-172" vertex="1">
          <mxGeometry y="30" width="200" height="30" as="geometry" />
        </mxCell>
        <mxCell id="9Ai0LDbEZ_OrRud7lZ-n-174" value="PK" style="shape=partialRectangle;connectable=0;fillColor=none;top=0;left=0;bottom=0;right=0;fontStyle=1;overflow=hidden;whiteSpace=wrap;html=1;" parent="9Ai0LDbEZ_OrRud7lZ-n-173" vertex="1">
          <mxGeometry width="30" height="30" as="geometry">
            <mxRectangle width="30" height="30" as="alternateBounds" />
          </mxGeometry>
        </mxCell>
        <mxCell id="9Ai0LDbEZ_OrRud7lZ-n-175" value="IDMecanico" style="shape=partialRectangle;connectable=0;fillColor=none;top=0;left=0;bottom=0;right=0;align=left;spacingLeft=6;fontStyle=5;overflow=hidden;whiteSpace=wrap;html=1;" parent="9Ai0LDbEZ_OrRud7lZ-n-173" vertex="1">
          <mxGeometry x="30" width="170" height="30" as="geometry">
            <mxRectangle width="170" height="30" as="alternateBounds" />
          </mxGeometry>
        </mxCell>
        <mxCell id="9Ai0LDbEZ_OrRud7lZ-n-176" value="" style="shape=tableRow;horizontal=0;startSize=0;swimlaneHead=0;swimlaneBody=0;fillColor=none;collapsible=0;dropTarget=0;points=[[0,0.5],[1,0.5]];portConstraint=eastwest;top=0;left=0;right=0;bottom=0;" parent="9Ai0LDbEZ_OrRud7lZ-n-172" vertex="1">
          <mxGeometry y="60" width="200" height="30" as="geometry" />
        </mxCell>
        <mxCell id="9Ai0LDbEZ_OrRud7lZ-n-177" value="" style="shape=partialRectangle;connectable=0;fillColor=none;top=0;left=0;bottom=0;right=0;editable=1;overflow=hidden;whiteSpace=wrap;html=1;" parent="9Ai0LDbEZ_OrRud7lZ-n-176" vertex="1">
          <mxGeometry width="30" height="30" as="geometry">
            <mxRectangle width="30" height="30" as="alternateBounds" />
          </mxGeometry>
        </mxCell>
        <mxCell id="9Ai0LDbEZ_OrRud7lZ-n-178" value="Nome VARCHAR (45)" style="shape=partialRectangle;connectable=0;fillColor=none;top=0;left=0;bottom=0;right=0;align=left;spacingLeft=6;overflow=hidden;whiteSpace=wrap;html=1;" parent="9Ai0LDbEZ_OrRud7lZ-n-176" vertex="1">
          <mxGeometry x="30" width="170" height="30" as="geometry">
            <mxRectangle width="170" height="30" as="alternateBounds" />
          </mxGeometry>
        </mxCell>
        <mxCell id="9Ai0LDbEZ_OrRud7lZ-n-179" value="" style="shape=tableRow;horizontal=0;startSize=0;swimlaneHead=0;swimlaneBody=0;fillColor=none;collapsible=0;dropTarget=0;points=[[0,0.5],[1,0.5]];portConstraint=eastwest;top=0;left=0;right=0;bottom=0;" parent="9Ai0LDbEZ_OrRud7lZ-n-172" vertex="1">
          <mxGeometry y="90" width="200" height="30" as="geometry" />
        </mxCell>
        <mxCell id="9Ai0LDbEZ_OrRud7lZ-n-180" value="" style="shape=partialRectangle;connectable=0;fillColor=none;top=0;left=0;bottom=0;right=0;editable=1;overflow=hidden;whiteSpace=wrap;html=1;" parent="9Ai0LDbEZ_OrRud7lZ-n-179" vertex="1">
          <mxGeometry width="30" height="30" as="geometry">
            <mxRectangle width="30" height="30" as="alternateBounds" />
          </mxGeometry>
        </mxCell>
        <mxCell id="9Ai0LDbEZ_OrRud7lZ-n-181" value="Especialidade VARCHAR (45)" style="shape=partialRectangle;connectable=0;fillColor=none;top=0;left=0;bottom=0;right=0;align=left;spacingLeft=6;overflow=hidden;whiteSpace=wrap;html=1;" parent="9Ai0LDbEZ_OrRud7lZ-n-179" vertex="1">
          <mxGeometry x="30" width="170" height="30" as="geometry">
            <mxRectangle width="170" height="30" as="alternateBounds" />
          </mxGeometry>
        </mxCell>
        <mxCell id="nkZ4B8Kq5Z6Ev2J-McXG-27" value="" style="shape=tableRow;horizontal=0;startSize=0;swimlaneHead=0;swimlaneBody=0;fillColor=none;collapsible=0;dropTarget=0;points=[[0,0.5],[1,0.5]];portConstraint=eastwest;top=0;left=0;right=0;bottom=0;" vertex="1" parent="9Ai0LDbEZ_OrRud7lZ-n-172">
          <mxGeometry y="120" width="200" height="30" as="geometry" />
        </mxCell>
        <mxCell id="nkZ4B8Kq5Z6Ev2J-McXG-28" value="" style="shape=partialRectangle;connectable=0;fillColor=none;top=0;left=0;bottom=0;right=0;editable=1;overflow=hidden;whiteSpace=wrap;html=1;" vertex="1" parent="nkZ4B8Kq5Z6Ev2J-McXG-27">
          <mxGeometry width="30" height="30" as="geometry">
            <mxRectangle width="30" height="30" as="alternateBounds" />
          </mxGeometry>
        </mxCell>
        <mxCell id="nkZ4B8Kq5Z6Ev2J-McXG-29" value="Telefone VARCHAR (45)" style="shape=partialRectangle;connectable=0;fillColor=none;top=0;left=0;bottom=0;right=0;align=left;spacingLeft=6;overflow=hidden;whiteSpace=wrap;html=1;" vertex="1" parent="nkZ4B8Kq5Z6Ev2J-McXG-27">
          <mxGeometry x="30" width="170" height="30" as="geometry">
            <mxRectangle width="170" height="30" as="alternateBounds" />
          </mxGeometry>
        </mxCell>
        <mxCell id="9Ai0LDbEZ_OrRud7lZ-n-182" value="OS_Servico" style="shape=table;startSize=30;container=1;collapsible=1;childLayout=tableLayout;fixedRows=1;rowLines=0;fontStyle=1;align=center;resizeLast=1;html=1;" parent="1" vertex="1">
          <mxGeometry x="620" y="2760" width="180" height="120" as="geometry" />
        </mxCell>
        <mxCell id="9Ai0LDbEZ_OrRud7lZ-n-186" value="" style="shape=tableRow;horizontal=0;startSize=0;swimlaneHead=0;swimlaneBody=0;fillColor=none;collapsible=0;dropTarget=0;points=[[0,0.5],[1,0.5]];portConstraint=eastwest;top=0;left=0;right=0;bottom=0;" parent="9Ai0LDbEZ_OrRud7lZ-n-182" vertex="1">
          <mxGeometry y="30" width="180" height="30" as="geometry" />
        </mxCell>
        <mxCell id="9Ai0LDbEZ_OrRud7lZ-n-187" value="" style="shape=partialRectangle;connectable=0;fillColor=none;top=0;left=0;bottom=0;right=0;editable=1;overflow=hidden;whiteSpace=wrap;html=1;" parent="9Ai0LDbEZ_OrRud7lZ-n-186" vertex="1">
          <mxGeometry width="30" height="30" as="geometry">
            <mxRectangle width="30" height="30" as="alternateBounds" />
          </mxGeometry>
        </mxCell>
        <mxCell id="9Ai0LDbEZ_OrRud7lZ-n-188" value="IDOS" style="shape=partialRectangle;connectable=0;fillColor=none;top=0;left=0;bottom=0;right=0;align=left;spacingLeft=6;overflow=hidden;whiteSpace=wrap;html=1;" parent="9Ai0LDbEZ_OrRud7lZ-n-186" vertex="1">
          <mxGeometry x="30" width="150" height="30" as="geometry">
            <mxRectangle width="150" height="30" as="alternateBounds" />
          </mxGeometry>
        </mxCell>
        <mxCell id="9Ai0LDbEZ_OrRud7lZ-n-189" value="" style="shape=tableRow;horizontal=0;startSize=0;swimlaneHead=0;swimlaneBody=0;fillColor=none;collapsible=0;dropTarget=0;points=[[0,0.5],[1,0.5]];portConstraint=eastwest;top=0;left=0;right=0;bottom=0;" parent="9Ai0LDbEZ_OrRud7lZ-n-182" vertex="1">
          <mxGeometry y="60" width="180" height="30" as="geometry" />
        </mxCell>
        <mxCell id="9Ai0LDbEZ_OrRud7lZ-n-190" value="" style="shape=partialRectangle;connectable=0;fillColor=none;top=0;left=0;bottom=0;right=0;editable=1;overflow=hidden;whiteSpace=wrap;html=1;" parent="9Ai0LDbEZ_OrRud7lZ-n-189" vertex="1">
          <mxGeometry width="30" height="30" as="geometry">
            <mxRectangle width="30" height="30" as="alternateBounds" />
          </mxGeometry>
        </mxCell>
        <mxCell id="9Ai0LDbEZ_OrRud7lZ-n-191" value="IDVeiculo" style="shape=partialRectangle;connectable=0;fillColor=none;top=0;left=0;bottom=0;right=0;align=left;spacingLeft=6;overflow=hidden;whiteSpace=wrap;html=1;" parent="9Ai0LDbEZ_OrRud7lZ-n-189" vertex="1">
          <mxGeometry x="30" width="150" height="30" as="geometry">
            <mxRectangle width="150" height="30" as="alternateBounds" />
          </mxGeometry>
        </mxCell>
        <mxCell id="9Ai0LDbEZ_OrRud7lZ-n-192" value="" style="shape=tableRow;horizontal=0;startSize=0;swimlaneHead=0;swimlaneBody=0;fillColor=none;collapsible=0;dropTarget=0;points=[[0,0.5],[1,0.5]];portConstraint=eastwest;top=0;left=0;right=0;bottom=0;" parent="9Ai0LDbEZ_OrRud7lZ-n-182" vertex="1">
          <mxGeometry y="90" width="180" height="30" as="geometry" />
        </mxCell>
        <mxCell id="9Ai0LDbEZ_OrRud7lZ-n-193" value="" style="shape=partialRectangle;connectable=0;fillColor=none;top=0;left=0;bottom=0;right=0;editable=1;overflow=hidden;whiteSpace=wrap;html=1;" parent="9Ai0LDbEZ_OrRud7lZ-n-192" vertex="1">
          <mxGeometry width="30" height="30" as="geometry">
            <mxRectangle width="30" height="30" as="alternateBounds" />
          </mxGeometry>
        </mxCell>
        <mxCell id="9Ai0LDbEZ_OrRud7lZ-n-194" value="IDServico" style="shape=partialRectangle;connectable=0;fillColor=none;top=0;left=0;bottom=0;right=0;align=left;spacingLeft=6;overflow=hidden;whiteSpace=wrap;html=1;" parent="9Ai0LDbEZ_OrRud7lZ-n-192" vertex="1">
          <mxGeometry x="30" width="150" height="30" as="geometry">
            <mxRectangle width="150" height="30" as="alternateBounds" />
          </mxGeometry>
        </mxCell>
        <mxCell id="nkZ4B8Kq5Z6Ev2J-McXG-11" value="Relation" style="endArrow=open;html=1;endSize=12;startArrow=diamondThin;startSize=14;startFill=0;edgeStyle=orthogonalEdgeStyle;rounded=0;exitX=0.006;exitY=0.167;exitDx=0;exitDy=0;exitPerimeter=0;" edge="1" parent="1" source="9Ai0LDbEZ_OrRud7lZ-n-47">
          <mxGeometry x="-0.1841" relative="1" as="geometry">
            <mxPoint x="210" y="2500" as="sourcePoint" />
            <mxPoint x="200" y="2485" as="targetPoint" />
            <Array as="points">
              <mxPoint x="260" y="2565" />
              <mxPoint x="260" y="2485" />
            </Array>
            <mxPoint as="offset" />
          </mxGeometry>
        </mxCell>
        <mxCell id="nkZ4B8Kq5Z6Ev2J-McXG-12" value="1..*" style="edgeLabel;resizable=0;html=1;align=left;verticalAlign=top;" connectable="0" vertex="1" parent="nkZ4B8Kq5Z6Ev2J-McXG-11">
          <mxGeometry x="-1" relative="1" as="geometry" />
        </mxCell>
        <mxCell id="nkZ4B8Kq5Z6Ev2J-McXG-13" value="1" style="edgeLabel;resizable=0;html=1;align=right;verticalAlign=top;" connectable="0" vertex="1" parent="nkZ4B8Kq5Z6Ev2J-McXG-11">
          <mxGeometry x="1" relative="1" as="geometry" />
        </mxCell>
        <mxCell id="nkZ4B8Kq5Z6Ev2J-McXG-14" value="Relation" style="endArrow=open;html=1;endSize=12;startArrow=diamondThin;startSize=14;startFill=0;edgeStyle=orthogonalEdgeStyle;rounded=0;exitX=0;exitY=0.067;exitDx=0;exitDy=0;exitPerimeter=0;" edge="1" parent="1" source="9Ai0LDbEZ_OrRud7lZ-n-66">
          <mxGeometry x="-0.1841" relative="1" as="geometry">
            <mxPoint x="600" y="2660" as="sourcePoint" />
            <mxPoint x="479" y="2500" as="targetPoint" />
            <Array as="points">
              <mxPoint x="520" y="2562" />
              <mxPoint x="520" y="2500" />
            </Array>
            <mxPoint as="offset" />
          </mxGeometry>
        </mxCell>
        <mxCell id="nkZ4B8Kq5Z6Ev2J-McXG-15" value="1..*" style="edgeLabel;resizable=0;html=1;align=left;verticalAlign=top;" connectable="0" vertex="1" parent="nkZ4B8Kq5Z6Ev2J-McXG-14">
          <mxGeometry x="-1" relative="1" as="geometry" />
        </mxCell>
        <mxCell id="nkZ4B8Kq5Z6Ev2J-McXG-16" value="1" style="edgeLabel;resizable=0;html=1;align=right;verticalAlign=top;" connectable="0" vertex="1" parent="nkZ4B8Kq5Z6Ev2J-McXG-14">
          <mxGeometry x="1" relative="1" as="geometry" />
        </mxCell>
        <mxCell id="nkZ4B8Kq5Z6Ev2J-McXG-17" value="Relation" style="endArrow=open;html=1;endSize=12;startArrow=diamondThin;startSize=14;startFill=0;edgeStyle=orthogonalEdgeStyle;rounded=0;exitX=1;exitY=0.5;exitDx=0;exitDy=0;entryX=0;entryY=0.9;entryDx=0;entryDy=0;entryPerimeter=0;" edge="1" parent="1" source="9Ai0LDbEZ_OrRud7lZ-n-98" target="9Ai0LDbEZ_OrRud7lZ-n-66">
          <mxGeometry x="-0.1841" relative="1" as="geometry">
            <mxPoint x="631" y="2742" as="sourcePoint" />
            <mxPoint x="620" y="2625" as="targetPoint" />
            <Array as="points">
              <mxPoint x="560" y="2785" />
              <mxPoint x="560" y="2680" />
              <mxPoint x="620" y="2680" />
            </Array>
            <mxPoint as="offset" />
          </mxGeometry>
        </mxCell>
        <mxCell id="nkZ4B8Kq5Z6Ev2J-McXG-18" value="1..*" style="edgeLabel;resizable=0;html=1;align=left;verticalAlign=top;" connectable="0" vertex="1" parent="nkZ4B8Kq5Z6Ev2J-McXG-17">
          <mxGeometry x="-1" relative="1" as="geometry" />
        </mxCell>
        <mxCell id="nkZ4B8Kq5Z6Ev2J-McXG-19" value="1" style="edgeLabel;resizable=0;html=1;align=right;verticalAlign=top;" connectable="0" vertex="1" parent="nkZ4B8Kq5Z6Ev2J-McXG-17">
          <mxGeometry x="1" relative="1" as="geometry" />
        </mxCell>
        <mxCell id="nkZ4B8Kq5Z6Ev2J-McXG-20" value="Relation" style="endArrow=open;html=1;endSize=12;startArrow=diamondThin;startSize=14;startFill=0;edgeStyle=orthogonalEdgeStyle;rounded=0;entryX=0.056;entryY=1.067;entryDx=0;entryDy=0;exitX=0.75;exitY=0;exitDx=0;exitDy=0;entryPerimeter=0;" edge="1" parent="1" source="9Ai0LDbEZ_OrRud7lZ-n-182" target="9Ai0LDbEZ_OrRud7lZ-n-66">
          <mxGeometry x="-0.1841" relative="1" as="geometry">
            <mxPoint x="700" y="2740" as="sourcePoint" />
            <mxPoint x="630" y="2675" as="targetPoint" />
            <Array as="points">
              <mxPoint x="755" y="2690" />
              <mxPoint x="630" y="2690" />
            </Array>
            <mxPoint as="offset" />
          </mxGeometry>
        </mxCell>
        <mxCell id="nkZ4B8Kq5Z6Ev2J-McXG-21" value="1..*" style="edgeLabel;resizable=0;html=1;align=left;verticalAlign=top;" connectable="0" vertex="1" parent="nkZ4B8Kq5Z6Ev2J-McXG-20">
          <mxGeometry x="-1" relative="1" as="geometry" />
        </mxCell>
        <mxCell id="nkZ4B8Kq5Z6Ev2J-McXG-22" value="1" style="edgeLabel;resizable=0;html=1;align=right;verticalAlign=top;" connectable="0" vertex="1" parent="nkZ4B8Kq5Z6Ev2J-McXG-20">
          <mxGeometry x="1" relative="1" as="geometry" />
        </mxCell>
        <mxCell id="nkZ4B8Kq5Z6Ev2J-McXG-24" value="Relation" style="endArrow=open;html=1;endSize=12;startArrow=diamondThin;startSize=14;startFill=0;edgeStyle=orthogonalEdgeStyle;rounded=0;exitX=0.417;exitY=1.133;exitDx=0;exitDy=0;exitPerimeter=0;entryX=0.344;entryY=-0.033;entryDx=0;entryDy=0;entryPerimeter=0;" edge="1" parent="1" source="9Ai0LDbEZ_OrRud7lZ-n-192" target="9Ai0LDbEZ_OrRud7lZ-n-159">
          <mxGeometry x="-0.1841" relative="1" as="geometry">
            <mxPoint x="615" y="2960" as="sourcePoint" />
            <mxPoint x="700" y="2940" as="targetPoint" />
            <Array as="points">
              <mxPoint x="680" y="2884" />
              <mxPoint x="680" y="2986" />
            </Array>
            <mxPoint as="offset" />
          </mxGeometry>
        </mxCell>
        <mxCell id="nkZ4B8Kq5Z6Ev2J-McXG-25" value="1..*" style="edgeLabel;resizable=0;html=1;align=left;verticalAlign=top;" connectable="0" vertex="1" parent="nkZ4B8Kq5Z6Ev2J-McXG-24">
          <mxGeometry x="-1" relative="1" as="geometry" />
        </mxCell>
        <mxCell id="nkZ4B8Kq5Z6Ev2J-McXG-26" value="1" style="edgeLabel;resizable=0;html=1;align=right;verticalAlign=top;" connectable="0" vertex="1" parent="nkZ4B8Kq5Z6Ev2J-McXG-24">
          <mxGeometry x="1" relative="1" as="geometry" />
        </mxCell>
        <mxCell id="nkZ4B8Kq5Z6Ev2J-McXG-30" value="Relation" style="endArrow=open;html=1;endSize=12;startArrow=diamondThin;startSize=14;startFill=0;edgeStyle=orthogonalEdgeStyle;rounded=0;exitX=0.417;exitY=1.133;exitDx=0;exitDy=0;exitPerimeter=0;entryX=1.017;entryY=0.067;entryDx=0;entryDy=0;entryPerimeter=0;" edge="1" parent="1" target="9Ai0LDbEZ_OrRud7lZ-n-179">
          <mxGeometry x="-0.1841" relative="1" as="geometry">
            <mxPoint x="310" y="2820" as="sourcePoint" />
            <mxPoint x="297" y="2922" as="targetPoint" />
            <Array as="points">
              <mxPoint x="295" y="2820" />
              <mxPoint x="295" y="2870" />
              <mxPoint x="297" y="2870" />
              <mxPoint x="297" y="2865" />
            </Array>
            <mxPoint as="offset" />
          </mxGeometry>
        </mxCell>
        <mxCell id="nkZ4B8Kq5Z6Ev2J-McXG-31" value="1..*" style="edgeLabel;resizable=0;html=1;align=left;verticalAlign=top;" connectable="0" vertex="1" parent="nkZ4B8Kq5Z6Ev2J-McXG-30">
          <mxGeometry x="-1" relative="1" as="geometry" />
        </mxCell>
        <mxCell id="nkZ4B8Kq5Z6Ev2J-McXG-32" value="1" style="edgeLabel;resizable=0;html=1;align=right;verticalAlign=top;" connectable="0" vertex="1" parent="nkZ4B8Kq5Z6Ev2J-McXG-30">
          <mxGeometry x="1" relative="1" as="geometry" />
        </mxCell>
      </root>
    </mxGraphModel>
  </diagram>
</mxfile>
